<svg width="720" height="240" viewBox="0 0 720 240" fill="none" xmlns="http://www.w3.org/2000/svg">
  <defs>
    <linearGradient id="mark" x1="32" y1="40" x2="258" y2="214" gradientUnits="userSpaceOnUse">
      <stop stop-color="#ff4d8d"/>
      <stop offset="0.54" stop-color="#ff8a5b"/>
      <stop offset="1" stop-color="#ffd15a"/>
    </linearGradient>
    <linearGradient id="text" x1="292" y1="72" x2="628" y2="178" gradientUnits="userSpaceOnUse">
      <stop stop-color="#ffffff"/>
      <stop offset="1" stop-color="#ffd7e4"/>
    </linearGradient>
    <filter id="glow" x="-30" y="-30" width="320" height="300" filterUnits="userSpaceOnUse" color-interpolation-filters="sRGB">
      <feGaussianBlur stdDeviation="18" result="blur"/>
      <feColorMatrix in="blur" type="matrix" values="1 0 0 0 1 0 1 0 0 0.28 0 0 1 0 0.55 0 0 0 0.5 0"/>
      <feBlend in2="SourceGraphic" mode="screen"/>
    </filter>
  </defs>
  <rect width="720" height="240" rx="40" fill="#140b22"/>
  <g filter="url(#glow)">
    <path d="M48 128C63 94 77 78 96 78C121 78 126 130 151 130C176 130 184 78 211 78C235 78 249 104 260 128" stroke="url(#mark)" stroke-width="20" stroke-linecap="round"/>
    <path d="M48 154C66 176 84 188 106 188C132 188 143 158 164 158C185 158 197 188 225 188C244 188 259 178 272 154" stroke="url(#mark)" stroke-width="20" stroke-linecap="round" opacity="0.82"/>
  </g>
  <text x="310" y="142" fill="url(#text)" font-family="Segoe UI, Arial, sans-serif" font-size="76" font-weight="800" letter-spacing="-1">Wavely</text>
  <text x="314" y="174" fill="#ff8db7" font-family="Segoe UI, Arial, sans-serif" font-size="18" font-weight="700" letter-spacing="4">GLASS MUSIC PLAYER</text>
</svg>
